/* XPM */ 
static const unsigned char * animationtrajectory_xpm[] = {
"16 16 15 1",
" 	c None",
"!	c black",
"#	c #6C6C6C",
"$	c #C0C0C0",
"%	c white",
"&	c #5D0000",
"'	c #3E0000",
"(	c #090909",
")	c #7C0000",
"*	c #9B0000",
"+	c #BA0000",
",	c #D90000",
"-	c #0000FF",
".	c #FF2424",
"0	c #F00000",
"!!!!!!!!#$$$$$$$",
"!%%%%%%%%&&&''($",
"!%%%%%))))%%%%%#",
"!%%%**)%%%%%%%%!",
"!%%**%%%%%%%%%%!",
"!%%%**%%%%%%%%%!",
"!%%%%**++%%%%%%!",
"!%%%%%%%++++,%%#",
"!%%!!%%%%%%+,,,$",
"#%!--!.%%%%%%%,,",
"$!----!...00%0,,",
"!------!...000,$",
"!------!...00,%#",
"$!----!...00%%%!",
"#%!--!.%%%%%%%%!",
"!#$!!$$#!!!!!!!!"};