/* XPM */ 
static const unsigned char * animationserverrunning_xpm[] = {
"64 64 25 1",
" 	c None",
"!	c black",
"#	c white",
"$	c #858585",
"%	c #90FF90",
"&	c #48FF48",
"'	c #00D900",
"(	c #FFFBF0",
")	c #DEDEDE",
"*	c #C5C5C5",
"+	c #ABABAB",
",	c #5F5F5F",
"-	c #1F1F1F",
".	c #00005D",
"0	c #00003E",
"1	c #787878",
"2	c #454545",
"3	c #393939",
"4	c #525252",
"5	c #6C6C6C",
"6	c #000080",
"7	c #0000D9",
"8	c #0000FF",
"9	c #00007C",
":	c #2424FF",
" !!!!!!!!!!!!!!!!!!!!!!!!!!!!!!!!!!!!!!!!!!!!!!!!!!!!!!!!!!!!!! ",
"!!############################################################!!",
"!##############################################################!",
"!########!!!!!!!!!!!!!!!!!!!!!!!!!!!!!!!!!!!!!!!!!!!!!!########!",
"!#######!!!!!!!!!!!!!!!!!!!!!!!!!!!!!!!!!!!!!!!!!!!!!!!!#######!",
"!######!!!$$$$$$$$$$$$$$$$$$$$$$$$$$$$$$$$$$$$$$$$$$$$!!!######!",
"!######!!$$$$$$$$$$$$$$$$$$$$$$$$$$$$$$$$$$$$$$$$$$$$$$!!######!",
"!######!!$$$$$$$$$$$$$$$$$$$$$$$$$$$$$$$$$$$$$$$$$$$$$$!!######!",
"!######!!$$$!!!!!!!!!!!!!!!!!!!!!!!!!!!!!!!!!!!!!!!!$$$!!######!",
"!######!!$$!!%%%%%%%%%%%%%%%%%%%%%%%%%%%%%%%%%%%%%%!!$$!!######!",
"!######!!$$!%%%%%%%%%%%%%%%%%%%%%%%%%%%%%%%%%%%%%%%%!$$!!######!",
"!######!!$$!%%%!!%%%%%%%%%%%%%%%%%%%%%%%%%%%%%%%%%%%!$$!!######!",
"!######!!$$!%%!!!!%%%%%%%%%%%%%%%%%%%%%%%%%%%%%%%%%%!$$!!######!",
"!######!!$$!%%!!!!%%%%%%%%%%%%%%%%%%%%%%%%%%%%%%%%%%!$$!!######!",
"!######!!$$!%%%!!%%%%%%%%%%%%%%%%%%%%%%%%%!%%!%%!%%%!$$!!######!",
"!######!!$$!%%%%%%%%%%%%%%%%%%%%%%%%%%%%%%%%%%%%%%%%!$$!!######!",
"!######!!$$!!%%%%%%%%%%%%%%%%%%%%%%%%%%%%%%%%%%%%%%!!$$!!######!",
"!######!!$$$!!!!!!!!!!!!!!!!!!!!!!!!!!!!!!!!!!!!!!!!$$$!!######!",
"!######!!$$$$$$$$$$$$$$$$$$$$$$$$$$$$$$$$$$$$$$$$$$$$$$!!######!",
"!######!!$$$$$$$$$$$$$$$$$$$$$$$$$$$$$$$$$$$$$$$$$$$$$$!!######!",
"!######!!$$$!!!!!!!!!!!!!!!!!!!!!!!!!!!!!!!!!!!!!!!!$$$!!######!",
"!######!!$$!!&&&&&&&&&&&&&&&&&&&&&&&&&&&&&&&&&&&&&&!!$$!!######!",
"!######!!$$!&&&&&&&&&&&&&&&&&&&&&&&&&&&&&&&&&&&&&&&&!$$!!######!",
"!######!!$$!&&&!!&&&&&&&&&&&&&&&&&&&&&&&&&&&&&&&&&&&!$$!!######!",
"!######!!$$!&&!!!!&&&&&&&&&&&&&&&&&&&&&&&&&&&&&&&&&&!$$!!######!",
"!######!!$$!&&!!!!&&&&&&&&&&&&&&&&&&&&&&&&&&&&&&&&&&!$$!!######!",
"!######!!$$!&&&!!&&&&&&&&&&&&&&&&&&&&&&&&&!&&!&&!&&&!$$!!######!",
"!######!!$$!&&&&&&&&&&&&&&&&&&&&&&&&&&&&&&&&&&&&&&&&!$$!!######!",
"!######!!$$!!&&&&&&&&&&&&&&&&&&&&&&&&&&&&&&&&&&&&&&!!$$!!######!",
"!######!!$$$!!!!!!!!!!!!!!!!!!!!!!!!!!!!!!!!!!!!!!!!$$$!!######!",
"!######!!$$$$$$$$$$$$$$$$$$$$$$$$$$$$$$$$$$$$$$$$$$$$$$!!######!",
"!######!!$$$$$$$$$$$$$$$$$$$$$$$$$$$$$$$$$$$$$$$$$$$$$$!!######!",
"!######!!$$$!!!!!!!!!!!!!!!!!!!!!!!!!!!!!!!!!!!!!!!!$$$!!######!",
"!######!!$$!!''''''''''''''''''''''''''''''''''''''!!$$!!######!",
"!######!!$$!''''''''''''''''''''''''''''''''''''''''!$$!!######!",
"!######!!$$!'''!!'''''''''''''''''''''''''''''''''''!$$!!######!",
"!######!!$$!''!!!!''''''''''''''''''''''''''''''''''!$$!!######!",
"!######!!$$!''!!!!''''''''''''''''''''''''''''''''''!$$!!######!",
"!######!!$$!'''!!'''''''''''''''''''''''''!''!''!'''!$$!!######!",
"!######!!$$!''''''''''''''''''''''''''''''''''''''''!$$!!######!",
"!######!!$$!!''''''''''''''''''''''''''''''''''''''!!$$!!######!",
"!######!!$$$!!!!!!!!!!!!!!!!!!!!!!!!!!!!!!!!!!!!!!!!$$$!!######!",
"!######!!$$$$$$$$$$$$$$$$$$$$$$$$$$$$$$$$$$$$$$$$$$$$$$!!######!",
"!######!!$$$$$$$$$$$$$$$$$$$$$$$$$$$$$$$$$$$$$$$$$$$$$$!!######!",
"!##!!!!!!!!!!!!!!!!!!!!!!!!!!!!!!!!!!!!!!!!!!!!!!!!!!!!!!!!!!##!",
"!###!!!!!!!!!!!!!!!!!!!!!!!!!!!!!!!!!!!!!!!!!!!!!!!!!!!!!!!!###!",
"!#####!!!!!!!!!!!!!!!!!!!!!!!!!!!!!!!!!!!!!!!!!!!!!!!!!!!!#####!",
"!#######!!!!!!!!!!!!!!!!!!!!!!!!!!!!!!!!!!!!!!!!!!!!!!!!#######!",
"!##########!!!!!!!!!!!!!!!!!!!!!!!!!!!!!!!!!!!!!!!!!!##########!",
"!##############!!!!!!!!!!!!!!!!!!!!!!!!!!!!!!!!!!##############!",
"!###################!!!!!!!!!!!!!!!!!!!!!!!!###################!",
"!#########################!!!!!!!!!!!!#########################!",
"!##(()*+,,!!!!###############-.00.-###############!!!!,,+*)((##!",
"!#(()*+12!!33!!##############3....3##############!!33!!21+*)((#!",
"!(()*+1,2!33344,,55555555544236..63244555555555,,44333!2,1+*)((!",
"!()*+1,2!!..6677888888888887766666677888888888887766..!!2,1+*)(!",
"!)**+1,2!.66778888888888888877666677888888888888887796.!2,1+**)!",
"!)**+1,2!.66778888888888888887777778888888888888:87766.!2,1+**)!",
"!()*+1,2!!..6677888888888888888778888888888888887766..!!2,1+*)(!",
"!(()*+1,2!33344,,555555555555555555555555555555,,44333!2,1+*)((!",
"!#(()*+12!!33!!##################################!!33!!21+*)((#!",
"!##(()*+,,!!!!####################################!!!!,,+*)((##!",
"!!############################################################!!",
" !!!!!!!!!!!!!!!!!!!!!!!!!!!!!!!!!!!!!!!!!!!!!!!!!!!!!!!!!!!!!! "};