/* XPM */ 
static const unsigned char * animate_xpm[] = {
"64 64 6 1",
" 	c None",
"!	c black",
"#	c #C5C5C5",
"$	c #5F5F5F",
"%	c #090909",
"&	c #9F9F9F",
"                                                                ",
"                                                                ",
"                                                                ",
"                                                                ",
"                                                                ",
"                                                                ",
"                                                                ",
"                                                                ",
"                                                                ",
"                                                                ",
"                                                                ",
"                                                                ",
"                                                                ",
"  ! !!! !!!!!!!!!!!!!!!!!!!!!!!!!!!!!!!!!!!!!!!!!!!!!!!! !!! !  ",
"  ! !!! !!!!!!!!!!!!!!!!!!!!!!!!!!!!!!!!!!!!!!!!!!!!!!!! !!! !  ",
"    ########################################################    ",
"  !##!##!##!##!##!##!##!##!##!##!##!##!##!##!##!##!##!##!##!# ! ",
"   ##########################################################   ",
"  !$!!!!!!!#####!!!!!!!!!!!!!!!!!!!!!!!!!!!!!!!!######!!%!!!$!  ",
"  &&&&&&&&&!###!&&&&&&&&&&&&&&&&&&&&&&&&&&&&&&&&!####!&&&&&&&&  ",
"  %&&&&%%%&&!#!&&&&&&&&&&&&&&&&&&&&&%%%%&&&&%%%&&!##!&&&&&&&&&& ",
" &%%&&%%&&&&!#!&&&&&&&&&&&&&&&&&&&&&&&&%%&&%%&&&&!##!&&&&&&&&&& ",
" &&%%&&&&&&&!#!&&&&&&&&&&&&&&&&&&&&&&&&&%%&&&&&&&!##!&&&&&&&&&& ",
" %%&&%%%%%%&!#!&&&&&&&&&&&&&&&&&&&%%%%%%&&%%%%%%&!##!&&&&&&&&&& ",
" &%%&%&&&%%&!#!&&&&&&&&&&&&&&&&&&%%&&&&%%&%&&&%%&!##!&&&&&&&&&& ",
" %&&%&&&&&%&!#!&&&&&&&&&&&&&&&&&&&&%%%%&&%&&&&&%&!##!&&&&&&&&&& ",
" %%%&&&&%%&&!#!&&&&&&&&&&&&&&&&&&&%%&&%%%&&&&%%&&!##!&&&&&&&&&& ",
" &&%&%%%%%%&!#!&&&&&&&&&&&&&&&&&&&%&&&&&%&%%%%%%&!##!&&&&&&&&&& ",
" &&&%&&&&&%&!#!&&&&&&&&&&&&&&&&&&&&&&&&&&%&&&&&%&!##!&&&&&&&&&& ",
" &&&%&&&&&%&!#!&&&&&&&&&&&&&&&&&&&&&&&&&&%&&&&&%&!##!&&&&&&&&&& ",
" &&%%&&&&&&&!#!&&&&&&&&&&&&&%&&&&&&&&&&&%%&&&&&&&!##!&&&&&&&%&& ",
" &&%&&&&&&&&!#!&&&&&&&&&&&&%%%&&&&&&&&&&%&&&&&&&&!##!&&&&&&%%%& ",
" &&%&&&&&&&&!#!&&&&&&&&&&&&%%%&&&&&&&&&&%&&&&&&&&!##!&&&&&&%%%& ",
" &&%&&&&&&&&!#!&&&&&&&&&&&&&%&&&&&&&&&&&%&&&&&&&&!##!&&&&&&&%&& ",
" &&%&&&&&&&&!#!&&&&&&&&&&&&%%%&&&&&&&&&&%&&&&&&&&!##!&&&&&&%%%& ",
" &&%&&&&&&&&!#!&&&&&&&&&&&%&%&%&&&&&&&&&%&&&&&&&&!##!&&&&&%&%&% ",
" &&%&&&&&&&&!#!&&&&&&&&&&&%&%&%&&&&&&&&&%&&&&&&&&!##!&&&&&%&%&% ",
" &&%&&&&&&&&!#!&&&&&&&&&&&%&%&&%&&&&&&&&%&&&&&&&&!##!&&&&&%&%&& ",
" &&%&&&&&&&&!#!&&&&&&&&&&&%&%&&&%&&&&&&&%&&&&&&&&!##!&&&&&%&%&& ",
" &&%&&&&&&&&!#!&&&&&&&&&&&&%%%&&&&&&&&&&%&&&&&&&&!##!&&&&&&%%%& ",
" $$$%$$$$$$$!#!$$$$$$$$$$$$%$%$$$$$$$$$$$%$$$$$$$!##!$$$$$$%$%$$",
" $$$%$$$$$$$!#!$$$$$$$$$$$%$$$%$$$$$$$$$$%$$$$$$$!##!$$$$$%$$$% ",
" $$$%%$$$$$$!#!$$$$$$$$$$%$$$$%$$$$$$$$$$%%$$$$$$!##!$$$$%$$$$% ",
"  $$$%$$$$$$!#!$$$$$$$$$$%%$$$%%$$$$$$$$$$%$$$$$$!##!$$$$%%$$$% ",
"  $$$$$$$$$!###!$$$$$$$$$$$$$$$$$$$$$$$$$$$$$$$$!####!$$$$$$$$  ",
"  !$!!!!!!!#####!!!!!!!!!!!!!!!!!!!!!!!!!!!!!!!!######!!%!!!$!  ",
"   ###########################################################  ",
"  !##!##!##!##!##!##!##!##!##!##!##!##!##!##!##!##!##!##!##!# ! ",
"    ########################################################    ",
"  ! !!! !!!!!!!!!!!!!!!!!!!!!!!!!!!!!!!!!!!!!!!!!!!!!!!! !!! !  ",
"  ! !!! !!!!!!!!!!!!!!!!!!!!!!!!!!!!!!!!!!!!!!!!!!!!!!!! !!! !  ",
"                                                                ",
"                                                                ",
"                                                                ",
"                                                                ",
"                                                                ",
"                                                                ",
"                                                                ",
"                                                                ",
"                                                                ",
"                                                                ",
"                                                                ",
"                                                                ",
"                                                                "};