/* XPM */ 
static const unsigned char * animationservercmd_xpm[] = {
"64 64 2 1",
" 	c None",
"!	c black",
" !!!!!!!!!!!!!!!!!!!!!!!!!!!!!!!!!!!!!!!!!!!!!!!!!!!!!!!!!!!!!! ",
"!!                                                            !!",
"!                                                              !",
"!                                                              !",
"!                                                              !",
"!                                                              !",
"!                                                              !",
"!        !!!!!!!!!!!!!!!!!!!!!!!!!!!!!!!!!!!!!!!!!!!!!!        !",
"!       !!!!!!!!!!!!!!!!!!!!!!!!!!!!!!!!!!!!!!!!!!!!!!!!       !",
"!      !!!                                            !!!      !",
"!      !!                                              !!      !",
"!      !!                                              !!      !",
"!      !!   !!!!!!!!!!!!!!!!!!!!!!!!!!!!!!!!!!!!!!!!   !!      !",
"!      !!  !!                                      !!  !!      !",
"!      !!  !                                        !  !!      !",
"!      !!  !   !!                                   !  !!      !",
"!      !!  !  !!!!                                  !  !!      !",
"!      !!  !  !!!!                                  !  !!      !",
"!      !!  !   !!                         !  !  !   !  !!      !",
"!      !!  !                                        !  !!      !",
"!      !!  !!                                      !!  !!      !",
"!      !!   !!!!!!!!!!!!!!!!!!!!!!!!!!!!!!!!!!!!!!!!   !!      !",
"!      !!                                              !!      !",
"!      !!                                              !!      !",
"!      !!   !!!!!!!!!!!!!!!!!!!!!!!!!!!!!!!!!!!!!!!!   !!      !",
"!      !!  !!                                      !!  !!      !",
"!      !!  !                                        !  !!      !",
"!      !!  !   !!                                   !  !!      !",
"!      !!  !  !!!!                                  !  !!      !",
"!      !!  !  !!!!                                  !  !!      !",
"!      !!  !   !!                         !  !  !   !  !!      !",
"!      !!  !                                        !  !!      !",
"!      !!  !!                                      !!  !!      !",
"!      !!   !!!!!!!!!!!!!!!!!!!!!!!!!!!!!!!!!!!!!!!!   !!      !",
"!      !!                                              !!      !",
"!      !!                                              !!      !",
"!      !!   !!!!!!!!!!!!!!!!!!!!!!!!!!!!!!!!!!!!!!!!   !!      !",
"!      !!  !!                                      !!  !!      !",
"!      !!  !                                        !  !!      !",
"!      !!  !   !!                                   !  !!      !",
"!      !!  !  !!!!                                  !  !!      !",
"!      !!  !  !!!!                                  !  !!      !",
"!      !!  !   !!                         !  !  !   !  !!      !",
"!      !!  !                                        !  !!      !",
"!      !!  !!                                      !!  !!      !",
"!      !!   !!!!!!!!!!!!!!!!!!!!!!!!!!!!!!!!!!!!!!!!   !!      !",
"!      !!                                              !!      !",
"!      !!                                              !!      !",
"!  !!!!!!!!!!!!!!!!!!!!!!!!!!!!!!!!!!!!!!!!!!!!!!!!!!!!!!!!!!  !",
"!   !!!!!!!!!!!!!!!!!!!!!!!!!!!!!!!!!!!!!!!!!!!!!!!!!!!!!!!!   !",
"!     !!!!!!!!!!!!!!!!!!!!!!!!!!!!!!!!!!!!!!!!!!!!!!!!!!!!     !",
"!       !!!!!!!!!!!!!!!!!!!!!!!!!!!!!!!!!!!!!!!!!!!!!!!!       !",
"!          !!!!!!!!!!!!!!!!!!!!!!!!!!!!!!!!!!!!!!!!!!          !",
"!              !!!!!!!!!!!!!!!!!!!!!!!!!!!!!!!!!!              !",
"!                   !!!!!!!!!!!!!!!!!!!!!!!!                   !",
"!                         !!!!!!!!!!!!                         !",
"!                                                              !",
"!                                                              !",
"!                                                              !",
"!                                                              !",
"!                                                              !",
"!                                                              !",
"!!                                                            !!",
" !!!!!!!!!!!!!!!!!!!!!!!!!!!!!!!!!!!!!!!!!!!!!!!!!!!!!!!!!!!!!! "};