/* XPM */ 
static const unsigned char * animationcontrolcmd_xpm[] = {
"64 64 10 1",
" 	c None",
"!	c black",
"#	c #ABABAB",
"$	c #C5C5C5",
"%	c #090909",
"&	c #5F5F5F",
"'	c #787878",
"(	c #929292",
")	c #2C2C2C",
"*	c #454545",
" !!!!!!!!!!!!!!!!!!!!!!!!!!!!!!!!!!!!!!!!!!!!!!!!!!!!!!!!!!!!!! ",
"!!                                                            !!",
"!                   !!!!!!!     !!!!!!!!!!                     !",
"!                 !!!#####!! !!!!!##$$$$!!! !!!!!!!            !",
"!               !!!###$$$$#!!!#####$$$$$$$!!!!##$$!!!          !",
"!              !!###$$$$$$$$!##$$$$$$$$$$$$!###$$$$$!!         !",
"!        !!!!!!!##$$$$$$$$$$!$$$$$$$$$$$$$$!$$$$$$$$$!         !",
"!      !!!#####!#$$$$$$$$$$$$$$$$$$$$$$$$$$$$$$$$$$$$!%%%%%    !",
"!     !!###$$$##$$$$$$$$$$$$$$$$$$$$$$$$$$$$$$$$$$$$!!%##$%%   !",
"!    !!##$$$$$$$$$$$$$%%%%%%%%%$$$$$$$$$$$$$$$$$$$$$!###$$$!%  !",
"!   !!##$$$$$$$$$$$$$%%####$$$%%$$$$$$$$$$$$$$$$$$$$$$$$$$$!!  !",
"!   !##$$$$$$$$$$$$%%%##$$$$$$$%%$$$$$$$$$$$$$$$$$$$$$$$$$$$!! !",
"!   !#$$$$$$$$$$$$$%###$$$$$$$$$%$$$$$$$$$$$$$$$$$$$$$$$$$$$!! !",
"!   !#$$$$$$$$$$$$$%#$$$$$$$$$$$$$$$$$$$$$$$$$$$$$$$$$$$$$$$!! !",
"!   !##$$$$$$$$$$$$%#$$$$$$$$$$$$$$$$$$$$$$$$$$$$$$$$$$$$$$$!! !",
"!   !!##$$$$$$$$$$$%$$$$$$$$$$$%!!!%$$%!!!!!%$$$$$$$$$$$$$$!!  !",
"!   !!!!#$$$$$$$$$$%%$$$$$$$$%!!&&&!!$!&&&&&!!%$$$$$$$$$$!!!   !",
"!  !!##$$$$$$$$$$$$$%%$$$$$$%!&&&'&&&!%&''''''!%$$$$$$$$$$$%!  !",
"! !!##$$$$$$$$%%%%$$$$$$$$$%%&&'''''&!&''''''''!$!!!!%%$$$$$!  !",
"! !##$$$$$$$$%%##$$$$$$$$$$%&&'''''''%!''''''''%!%%&&!!!!$$$%! !",
"! !#$$$$$$$$%%##$$$$$$$$$$$%&'''''''''!'''''''''%&&&''''%!$$$! !",
"! !#$$$$$$$$%##$$$$$$$$$%!!!%%''''''''''''''''''%&'''''''%!$$! !",
"! !#$$$$$$$%%#$$$$$$$$$%!&&&&%''''''''''''''''''''''''''''%!!! !",
"! !!$$$$$$$%%#$$$$$$$$%!&'''''''''%!!&&''''''''''''''''''''%!  !",
"! !!$$$$$$$%%$$$$$$$$$!&''''''''%!!&&'''''''''''''''''''''''%! !",
"!  !$$$$$$$$%%$$$$$$$$!&'''''''%!&&''''''''''''''''''''''''''! !",
"!  !$$$$$$$$$%%$$$$$$$%!&'''''%!&'''''''''''''''%!!!!!'''''''! !",
"!  !!$$$$$$$$$%%$$$$$$$%!''''''%!&'''''''''''%!!!&&''''''''''! !",
"!   !!$$$$$$$$$%$$$$$$$$%!'''''''''''''''%!!!!!&&'''''''''''%! !",
"!    !!$$$$$$$$$$$$$$$$$$!''''''''''%!!!!!&&'''''''''''''''%!  !",
"!  !!!!!!$$$$$$$$$$$$$$$$$!!!!!!!!!!!&&'''''''''''''''%%%&!!   !",
"! !!(((##!!!!!!!$$$$$$$$$!'''''''''''''''''''''''''%!!!!&''%!  !",
"! !%(#######!'''!!!!!!!!!''''%!''''''''''''''''!!!!!%&&'''''%! !",
"! !((#######!''''''''(((!'''''%%''''''%!!!!!'''''''''''''''''! !",
"! !(########!''(((((((((!'''''%!!!!!!!!%'''''''''''''''''''''! !",
"! !%########!'((((((((((!''''%!&&''''''''''''''''''''''''''''! !",
"!  !%#######!'(((((((((((!'''''''''''''''''''''''''''''''''''! !",
"!   !!#######!((((((((((((!!!!!!!!!!!!!!!!!!!!!!!!!!!!!!!'''!% !",
"!    %!!!!!!!!((((((((((((((((!)))))))****!*********&&&!!''!%  !",
"!             !!((((((((((((((!))********!!**&&&&&&&&&&&!!!%   !",
"!               !!!!((((((((((!)********!!**&&&&&&&&&&&&&&!    !",
"!                   !!!(((((((!)********!!*&&&&&&&&&&&&&&&!    !",
"!                      !!!!!!!!)*********!!&&&&&&&&&&&&&&!!    !",
"!                             !!**********!!&&&&&&&&&&&&!!     !",
"!                              !***********!!!&&&&&&&&!!!      !",
"!                              !!***********!!!!!!!!!!!        !",
"!                               !!**************!!             !",
"!                                !!*************!              !",
"!                                 !!***********!!              !",
"!                                  !!**********!               !",
"!                                   !!*********!               !",
"!                                    !!********!               !",
"!                                     !********!               !",
"!                                     !!*******!               !",
"!                                      !*******!               !",
"!                                      !*******!               !",
"!                                       !******!               !",
"!                                       !******!               !",
"!                                       !!*****!               !",
"!                                        !!!!!*!               !",
"!                                        !&&&&!!               !",
"!                                         !!!!!                !",
"!!                                                            !!",
" !!!!!!!!!!!!!!!!!!!!!!!!!!!!!!!!!!!!!!!!!!!!!!!!!!!!!!!!!!!!!! "};