/* XPM */ 
static const unsigned char * animationtrajectory_xpm[] = {
"64 64 16 1",
" 	c None",
"!	c black",
"#	c white",
"$	c #FF9090",
"%	c #FFB4B4",
"&	c #FF6C6C",
"'	c #FF4848",
"(	c #FF2424",
")	c #D90000",
"*	c #BA0000",
"+	c #9B0000",
",	c #001E5D",
"-	c #00143E",
".	c #4885FF",
"0	c #0046D9",
"1	c #00329B",
" !!!!!!!!!!!!!!!!!!!!!!!!!!!!!!!!!!!!!!!!!!!!!!!!!!!!!!!!!!!!!! ",
"!!############################################################!!",
"!#########################################$$$$$#%%%#%%#%#%#%###!",
"!#################################$$$$$$$$#####################!",
"!############################&&&&&#############################!",
"!########################&&&&##################################!",
"!#####################'''######################################!",
"!###################''#########################################!",
"!##################'###########################################!",
"!#################'############################################!",
"!################'#############################################!",
"!################'#############################################!",
"!###############(##############################################!",
"!###############(##############################################!",
"!##############(###############################################!",
"!##############(###############################################!",
"!##############(###############################################!",
"!##############(###############################################!",
"!###############(##############################################!",
"!###############(##############################################!",
"!################(#############################################!",
"!################(#############################################!",
"!#################)############################################!",
"!##################))##########################################!",
"!####################))########################################!",
"!######################)))#####################################!",
"!#########################)))##################################!",
"!############################****##############################!",
"!################################***###########################!",
"!###################################***########################!",
"!######################################***#####################!",
"!#########################################**###################!",
"!###########################################**#################!",
"!#############################################++###############!",
"!###############################################++#############!",
"!#################################################+############!",
"!##################################################+###########!",
"!###################################################+##########!",
"!###################################################+##########!",
"!####################################################+#########!",
"!####################################################+#########!",
"!##########,,,,-######################################+########!",
"!########,,....0-!####################################+########!",
"!######,,...000000!!##################################+########!",
"!#####,...0000000000!#################################+########!",
"!#####,.000000000000!################################++########!",
"!####,..0000000000000!###############################+#########!",
"!####,.00000000000000!##############################++#########!",
"!###,..000000000000001!#############################+##########!",
"!###,.0000000000000001!############################++##########!",
"!###,.0000000000000001!###########################++###########!",
"!###,.000000000000000,!##########################++############!",
"!###-0000000000000001,!########################+++#############!",
"!####-000000000000001!#######################++++##############!",
"!####!00000000000001,!####################+++++################!",
"!#####!0000000000001!###################+++++##################!",
"!#####!000000000011,!################+++++#####################!",
"!######!!00000011,!!#############+++++++#######################!",
"!########!!111,,!!+++++++++++++++++++##########################!",
"!##########!!!!!+++++++++++++++++##############################!",
"!##############################################################!",
"!##############################################################!",
"!!############################################################!!",
" !!!!!!!!!!!!!!!!!!!!!!!!!!!!!!!!!!!!!!!!!!!!!!!!!!!!!!!!!!!!!! "};