/* XPM */ 
static const unsigned char * animationtrajectorycmd_xpm[] = {
"64 64 7 1",
" 	c None",
"!	c black",
"#	c #393939",
"$	c #5F5F5F",
"%	c #D2D2D2",
"&	c #C5C5C5",
"'	c #858585",
" !!!!!!!!!!!!!!!!!!!!!!!!!!!!!!!!!!!!!!!!!!!!!!!!!!!!!!!!!!!!!! ",
"!!                                                            !!",
"!                                         ##### ### ## # # #   !",
"!                                 ########                     !",
"!                            #####                             !",
"!                        ####                                  !",
"!                     ###                                      !",
"!                   ##                                         !",
"!                  #                                           !",
"!                 #                                            !",
"!                #                                             !",
"!                #                                             !",
"!               #                                              !",
"!               #                                              !",
"!              #                                               !",
"!              #                                               !",
"!              #                                               !",
"!              #                                               !",
"!               #                                              !",
"!               #                                              !",
"!                #                                             !",
"!                #                                             !",
"!                 #                                            !",
"!                  ##                                          !",
"!                    ##                                        !",
"!                      ###                                     !",
"!                         ###                                  !",
"!                            ####                              !",
"!                                ###                           !",
"!                                   ###                        !",
"!                                      ###                     !",
"!                                         ##                   !",
"!                                           ##                 !",
"!                                             ##               !",
"!                                               ##             !",
"!                                                 #            !",
"!                                                  #           !",
"!                                                   #          !",
"!                                                   #          !",
"!                                                    #         !",
"!                                                    #         !",
"!          $$$$#                                      #        !",
"!        $$%%%%&#!                                    #        !",
"!      $$%%%&&&&&&!!                                  #        !",
"!     $%%%&&&&&&&&&&!                                 #        !",
"!     $%&&&&&&&&&&&&!                                ##        !",
"!    $%%&&&&&&&&&&&&&!                               #         !",
"!    $%&&&&&&&&&&&&&&!                              ##         !",
"!   $%%&&&&&&&&&&&&&&'!                             #          !",
"!   $%&&&&&&&&&&&&&&&'!                            ##          !",
"!   $%&&&&&&&&&&&&&&&'!                           ##           !",
"!   $%&&&&&&&&&&&&&&&$!                          ##            !",
"!   #&&&&&&&&&&&&&&&'$!                        ###             !",
"!    #&&&&&&&&&&&&&&'!                       ####              !",
"!    !&&&&&&&&&&&&&'$!                    #####                !",
"!     !&&&&&&&&&&&&'!                   #####                  !",
"!     !&&&&&&&&&&''$!                #####                     !",
"!      !!&&&&&&''$!!             #######                       !",
"!        !!'''$$!!###################                          !",
"!          !!!!!#################                              !",
"!                                                              !",
"!                                                              !",
"!!                                                            !!",
" !!!!!!!!!!!!!!!!!!!!!!!!!!!!!!!!!!!!!!!!!!!!!!!!!!!!!!!!!!!!!! "};