<?xml version="1.0" encoding="UTF-8" standalone="no"?>
<!-- Created with Inkscape (http://www.inkscape.org/) -->

<svg
   xmlns:dc="http://purl.org/dc/elements/1.1/"
   xmlns:cc="http://creativecommons.org/ns#"
   xmlns:rdf="http://www.w3.org/1999/02/22-rdf-syntax-ns#"
   xmlns:svg="http://www.w3.org/2000/svg"
   xmlns="http://www.w3.org/2000/svg"
   xmlns:sodipodi="http://sodipodi.sourceforge.net/DTD/sodipodi-0.dtd"
   xmlns:inkscape="http://www.inkscape.org/namespaces/inkscape"
   width="210mm"
   height="297mm"
   viewBox="0 0 210 297"
   version="1.1"
   id="svg4543"
   inkscape:version="0.92.3 (2405546, 2018-03-11)"
   sodipodi:docname="Guide_Light_32px.svg"
   inkscape:export-filename="C:\Users\jirka\Desktop\Guide_Light_32px.png"
   inkscape:export-xdpi="96"
   inkscape:export-ydpi="96">
  <defs
     id="defs4537" />
  <sodipodi:namedview
     id="base"
     pagecolor="#ffffff"
     bordercolor="#666666"
     borderopacity="1.0"
     inkscape:pageopacity="0.0"
     inkscape:pageshadow="2"
     inkscape:zoom="16"
     inkscape:cx="250.95092"
     inkscape:cy="639.25826"
     inkscape:document-units="mm"
     inkscape:current-layer="layer1"
     showgrid="false"
     inkscape:window-width="1858"
     inkscape:window-height="1057"
     inkscape:window-x="54"
     inkscape:window-y="1072"
     inkscape:window-maximized="1" />
  <metadata
     id="metadata4540">
    <rdf:RDF>
      <cc:Work
         rdf:about="">
        <dc:format>image/svg+xml</dc:format>
        <dc:type
           rdf:resource="http://purl.org/dc/dcmitype/StillImage" />
        <dc:title />
      </cc:Work>
    </rdf:RDF>
  </metadata>
  <g
     inkscape:label="Layer 1"
     inkscape:groupmode="layer"
     id="layer1">
    <path
       style="opacity:1;fill:#ffffff;fill-opacity:1;stroke-width:0.04334559;stroke-miterlimit:4;stroke-dasharray:none"
       d="M 272.81641 473.37695 A 15.999999 15.999999 0 0 0 260.01562 479.81445 C 260.97666 480.32191 268.55489 484.31378 271.82227 485.42969 C 273.94817 486.15611 274.30899 485.44039 275.58398 485.41016 C 276.92736 485.37652 279.78448 484.74316 280.21875 485.54102 C 280.65227 486.3408 278.19964 486.56158 277.97461 487.07812 C 277.85961 487.33672 278.1562 488.33466 279.99219 488.9082 C 281.93696 489.51523 284.80397 491.07258 284.68359 491.4082 C 284.44352 492.07733 280.05254 489.95769 279.96289 490.44336 C 279.84474 491.07367 285.66294 493.00823 285.38477 493.73828 C 285.10819 494.46875 279.54765 491.59811 279.30273 491.97266 C 279.06024 492.34872 284.54842 494.63894 284.24609 495.38672 C 283.94338 496.13401 279.14334 493.15169 279.02734 493.8125 C 278.91369 494.4503 282.74339 496.06349 282.50781 496.78516 C 282.27155 497.50667 277.9364 494.94927 276.96875 494.41602 C 275.90009 494.13195 274.97677 493.90314 273.66406 493.29297 C 272.35151 492.68235 271.60467 491.88096 270.48242 491.01953 C 269.47724 490.24632 259.20471 487.73878 256.98828 487.20312 A 15.999999 15.999999 0 0 0 256.82031 489.37891 A 15.999999 15.999999 0 0 0 272.82422 505.37695 A 15.999999 15.999999 0 0 0 288.82031 489.37305 L 288.82031 489.37109 A 15.999999 15.999999 0 0 0 272.81641 473.37695 z "
       transform="scale(0.26458333)"
       id="path5092" />
  </g>
</svg>
